<svg xmlns="http://www.w3.org/2000/svg" viewBox="0 0 512 512" width="512" height="512" role="img" aria-label="Eternal Amora">
<defs>
 <radialGradient id="bg"><stop offset="0" stop-color="#7c3aed" stop-opacity=".26"/><stop offset="1" stop-color="#000" stop-opacity="0"/></radialGradient>
 <linearGradient id="g1" x1="0" y1="0" x2="1" y2="1"><stop stop-color="#f472b6"/><stop offset=".5" stop-color="#7c3aed"/><stop offset="1" stop-color="#fef08a"/></linearGradient>
 <linearGradient id="g2" x1="0" y1="1" x2="1" y2="0"><stop stop-color="#7c3aed"/><stop offset=".5" stop-color="#f472b6"/><stop offset="1" stop-color="#fef08a"/></linearGradient>
 <linearGradient id="g3" x1="0" y1="0" x2="1" y2="1"><stop stop-color="#fff"/><stop offset=".4" stop-color="#fef08a"/><stop offset="1" stop-color="#7c3aed"/></linearGradient>
 <filter id="glow" x="-50%" y="-50%" width="200%" height="200%"><feGaussianBlur stdDeviation="10" result="b"/><feMerge><feMergeNode in="b"/><feMergeNode in="SourceGraphic"/></feMerge></filter>
</defs>
<circle cx="256" cy="256" r="220" fill="url(#bg)"/>
<g opacity=".95" filter="url(#glow)"><animateTransform attributeName="transform" type="rotate" values="-2 256 256;2 256 256;-2 256 256" dur="3.6s" repeatCount="indefinite"/><path d="M145 256 C145 185 230 170 256 230 C282 170 367 185 367 256 C367 327 282 342 256 282 C230 342 145 327 145 256Z" fill="none" stroke="url(#g2)" stroke-width="30" stroke-linecap="round"/><path d="M170 256 H342" stroke="url(#g3)" stroke-width="6" opacity=".65"/></g>
<g fill="#fff" opacity=".85"><circle cx="108" cy="128" r="4"/><circle cx="407" cy="126" r="3"/><circle cx="415" cy="340" r="4"/><circle cx="105" cy="356" r="3"/></g>
<path d="M120 408 Q256 450 392 408" fill="none" stroke="#7c3aed" stroke-opacity=".35" stroke-width="6" stroke-linecap="round"/>
</svg>