<svg xmlns="http://www.w3.org/2000/svg" viewBox="0 0 512 512" role="img" aria-label="Private Jet">
<defs>
 <radialGradient id="bg"><stop stop-color="#ffe17a" stop-opacity=".22"/><stop offset=".55" stop-color="#f59e0b" stop-opacity=".08"/><stop offset="1" stop-color="#000" stop-opacity="0"/></radialGradient>
 <linearGradient id="metal" x1="0" y1="0" x2="1" y2="1"><stop stop-color="#fff8cf"/><stop offset=".18" stop-color="#ffd95a"/><stop offset=".45" stop-color="#fff0a0"/><stop offset=".7" stop-color="#c88712"/><stop offset="1" stop-color="#fff4b2"/></linearGradient>
 <linearGradient id="pink" x1="0" y1="0" x2="1" y2="1"><stop stop-color="#fff"/><stop offset=".22" stop-color="#ffe17a"/><stop offset=".65" stop-color="#f59e0b"/><stop offset="1" stop-color="#ffb4df"/></linearGradient>
 <linearGradient id="glass" x1="0" y1="0" x2="1" y2="1"><stop stop-color="#fff" stop-opacity=".8"/><stop offset=".25" stop-color="#fff" stop-opacity=".18"/><stop offset=".55" stop-color="#ffe17a" stop-opacity=".28"/><stop offset="1" stop-color="#000" stop-opacity=".35"/></linearGradient>
 <filter id="glow" x="-60%" y="-60%" width="220%" height="220%"><feGaussianBlur stdDeviation="13" result="b"/><feMerge><feMergeNode in="b"/><feMergeNode in="SourceGraphic"/></feMerge></filter>
 <filter id="shadow" x="-50%" y="-50%" width="200%" height="200%"><feDropShadow dx="0" dy="18" stdDeviation="15" flood-color="#000" flood-opacity=".55"/></filter>
</defs>
<circle cx="256" cy="256" r="230" fill="url(#bg)"/>
<g filter="url(#shadow)">
<path d="M93 276c79-17 133-51 178-132 10-18 27-24 41-14 10 7 11 20 4 31l-40 62 109 9c19 2 28 20 15 34l-21 22-126-8-53 69c-12 16-29 23-44 15l-15-8 34-77-82-5z" fill="url(#metal)" stroke="#fff" stroke-opacity=".5" stroke-width="4"/>
<path d="M236 264l-34 78 24 11 54-70M318 232l72 6-19 20-68-3" fill="url(#pink)" opacity=".85"/>
<path d="M115 285c74-11 132-42 173-108" fill="none" stroke="#fff" stroke-opacity=".7" stroke-width="5"/>
<circle cx="288" cy="174" r="7" fill="#fff"/>
</g>
<g fill="#fff"><circle cx="88" cy="132" r="3" opacity=".8"/><circle cx="414" cy="158" r="4" opacity=".7"/><circle cx="110" cy="390" r="2.5" opacity=".6"/><circle cx="394" cy="378" r="3" opacity=".7"/></g>
</svg>